# xmcd
#
# Track frame offsets:
#	225
#	6551
#	16151
#	26609
#	36933
#	46595
#	59747
#	69617
#	81413
#	90368
#	108019
#	114849
#	131710
#	160775
#	183352
#	192791
#	201154
#	213916
#	238437
#	244749
#	266355
#	283280
#
# Disc length: 4115 seconds
#
# Revision: 4
# Processed by: cddbd v1.5.2PL0 Copyright (c) Steve Scherf et al.
# Submitted via: EasyCDDAExtractor 12.1.0.1
#
DISCID=34101016
DTITLE=황병기 - 달하노피곰
DYEAR=2007
DGENRE=Other
TTITLE0=달하노피곰 1.경건하게
TTITLE1=달하노피곰 2.중중모리
TTITLE2=달하노피곰 3.엇모리
TTITLE3=달하노피곰 4.고요하게
TTITLE4=달하노피곰 5.휘모리
TTITLE5=시계탑 1장
TTITLE6=시계탑 2장
TTITLE7=시계탑 3장
TTITLE8=시계탑 4장
TTITLE9=하마단 1.중모리
TTITLE10=하마단 2.자진모리
TTITLE11=하마단 3.휘모리
TTITLE12=자시
TTITLE13=낙도음 1.느리게
TTITLE14=낙도음 2.중중모리
TTITLE15=낙도음 3.중모리
TTITLE16=낙도음 4.자진모리 휘모리
TTITLE17=고향의 달 (Moon of My Hometown)
TTITLE18=차양이제 1.여음
TTITLE19=차양이제 2.차를 다리네
TTITLE20=차양이제 3.차를 마시네
TTITLE21=추천사
EXTD=YEAR: 2007
EXTT0=
EXTT1=
EXTT2=
EXTT3=
EXTT4=
EXTT5=
EXTT6=
EXTT7=
EXTT8=
EXTT9=
EXTT10=
EXTT11=
EXTT12=
EXTT13=
EXTT14=
EXTT15=
EXTT16=
EXTT17=
EXTT18=
EXTT19=
EXTT20=
EXTT21=
PLAYORDER=
